<!DOCTYPE svg PUBLIC "-//W3C//DTD SVG 20010904//EN" "http://www.w3.org/TR/2001/REC-SVG-20010904/DTD/svg10.dtd">
<svg version="1.0" xmlns="http://www.w3.org/2000/svg" width="419px" height="417px" viewBox="0 0 4190 4170" preserveAspectRatio="xMidYMid meet">
<g id="layer101" fill="#a02f33" stroke="none">
 <path d="M545 3965 c-62 -11 -161 -47 -175 -64 -3 -4 -20 -19 -38 -34 -50 -41 -116 -126 -141 -181 -11 -27 -26 -90 -32 -140 -7 -61 -9 -583 -7 -1576 l3 -1485 28 -65 c16 -36 37 -74 48 -86 10 -11 19 -23 19 -26 0 -8 90 -98 98 -98 3 0 15 -9 26 -19 12 -11 50 -31 85 -45 l64 -26 1558 0 1557 0 59 22 c93 35 195 118 242 198 29 49 37 67 56 133 16 54 17 135 15 970 -2 502 -2 1181 -1 1509 1 329 0 602 -3 606 -3 4 -7 27 -10 51 -14 116 -126 266 -236 315 -127 57 -95 56 -1685 55 -1116 -1 -1476 -4 -1530 -14z"/>
 </g>
<g id="layer102" fill="#d94639" stroke="none">
 <path d="M560 3969 c-84 -13 -94 -17 -119 -39 -13 -11 -28 -17 -32 -14 -5 3 -9 1 -9 -5 0 -6 -7 -7 -17 -4 -11 4 -14 3 -9 -5 4 -7 3 -12 -2 -12 -5 0 -36 -25 -68 -55 -33 -30 -55 -55 -50 -55 5 0 -1 -8 -12 -19 -12 -10 -22 -25 -22 -33 0 -9 -8 -26 -18 -39 -28 -36 -42 -104 -45 -209 -1 -52 -1 -750 1 -1550 2 -1208 5 -1459 16 -1475 7 -11 17 -34 20 -52 4 -17 20 -47 36 -65 16 -18 27 -35 26 -38 -1 -3 17 -24 41 -47 24 -23 43 -39 43 -36 0 4 10 -3 23 -14 27 -24 108 -64 136 -66 12 -1 21 -5 21 -9 0 -5 708 -7 1573 -6 l1572 3 67 33 c75 36 176 124 203 175 9 17 22 43 30 57 8 14 21 51 31 83 15 53 16 140 14 970 -2 502 -2 1181 -1 1509 1 329 0 602 -3 606 -3 4 -7 27 -10 51 -14 116 -126 266 -236 315 -127 57 -95 56 -1685 55 -803 -1 -1485 -5 -1515 -10z"/>
 </g>
<g id="layer103" fill="#f8d429" stroke="none">
 <path d="M1995 3508 c-16 -6 -98 -59 -181 -117 -715 -501 -694 -485 -732 -550 l-27 -46 0 -940 c0 -1055 -6 -976 75 -1048 78 -71 22 -67 950 -67 929 0 872 -4 951 67 80 72 74 -6 74 1048 l0 940 -27 46 c-35 59 -55 75 -411 325 -165 115 -338 236 -385 270 -48 33 -102 66 -121 72 -42 15 -125 14 -166 0z m113 -422 c47 -24 52 -46 55 -255 l2 -194 160 2 c88 1 166 -2 172 -7 10 -6 13 -78 15 -282 l3 -275 30 -3 c17 -2 34 -7 39 -12 8 -8 -130 -299 -149 -312 -18 -13 -26 -4 -57 67 -16 39 -45 104 -64 146 -19 42 -34 82 -34 88 0 6 11 16 25 21 25 9 25 10 25 144 0 103 -3 136 -14 145 -9 8 -40 11 -83 8 l-68 -3 -3 -147 -3 -147 36 0 c32 0 36 -3 33 -22 -5 -40 -147 -308 -162 -308 -8 0 -18 10 -22 23 -4 12 -20 51 -37 87 -87 191 -95 220 -58 220 19 0 20 9 23 138 2 75 -1 143 -6 150 -6 9 -31 12 -80 10 l-71 -3 -3 -147 -3 -148 31 0 c17 0 33 -6 36 -14 8 -20 -144 -316 -162 -316 -8 0 -22 17 -31 38 -8 20 -26 61 -39 90 -13 29 -24 55 -24 57 0 2 -12 29 -26 60 -28 59 -26 85 6 85 20 0 20 5 20 275 0 261 1 275 19 285 11 6 87 10 175 10 86 0 156 3 156 8 0 4 1 94 3 201 l2 193 35 29 c38 32 58 35 98 15z m446 -1509 c90 -143 148 -248 142 -255 -4 -4 -45 -5 -91 -4 -81 3 -125 -7 -125 -28 0 -5 -16 -34 -35 -64 -19 -30 -35 -58 -35 -61 0 -16 -71 -115 -83 -115 -7 0 -21 15 -30 33 -22 43 -63 114 -93 159 -13 21 -24 42 -24 47 0 19 -39 31 -99 31 -32 0 -66 -3 -74 -6 -9 -3 -48 -64 -89 -135 -40 -71 -79 -129 -86 -129 -13 0 -55 64 -130 195 l-43 76 -82 -1 c-111 -2 -117 -1 -117 9 0 10 17 40 124 214 l59 97 436 0 436 0 39 -63z"/>
 </g>

</svg>